<svg width="64" height="64" viewBox="0 0 64 64" fill="none" xmlns="http://www.w3.org/2000/svg">
<path d="M53.3333 24H29.3333C26.3878 24 24 26.3878 24 29.3333V53.3333C24 56.2789 26.3878 58.6667 29.3333 58.6667H53.3333C56.2789 58.6667 58.6667 56.2789 58.6667 53.3333V29.3333C58.6667 26.3878 56.2789 24 53.3333 24Z" stroke="#25282B" stroke-width="2" stroke-linecap="round" stroke-linejoin="round"/>
<path d="M13.3333 40.0007H10.6666C9.2521 40.0007 7.89554 39.4387 6.89535 38.4386C5.89515 37.4384 5.33325 36.0818 5.33325 34.6673V10.6673C5.33325 9.25283 5.89515 7.89628 6.89535 6.89608C7.89554 5.89589 9.2521 5.33398 10.6666 5.33398H34.6666C36.0811 5.33398 37.4376 5.89589 38.4378 6.89608C39.438 7.89628 39.9999 9.25283 39.9999 10.6673V13.334" stroke="#25282B" stroke-width="2" stroke-linecap="round" stroke-linejoin="round"/>
</svg>
