<svg width="25" height="27" viewBox="0 0 25 27" fill="none" xmlns="http://www.w3.org/2000/svg">
<ellipse cx="12.5" cy="13.6131" rx="12.5" ry="13.3875" fill="url(#paint0_linear)"/>
<path d="M16.613 8.25684H9.01202C8.15384 8.25684 7.5 8.95711 7.5 9.87621V18.0168C7.5 18.9359 8.15384 19.6362 9.01202 19.6362H16.613C17.4712 19.6362 18.125 18.9359 18.125 18.0168V9.87621C18.125 8.95711 17.4712 8.25684 16.613 8.25684ZM12.8125 17.3603C14.5697 17.3603 16 15.8723 16 14.0778C16 13.7715 15.9591 13.4213 15.8774 13.1587H16.7764V17.798C16.7764 18.0168 16.613 18.2357 16.3678 18.2357H9.25721C9.05289 18.2357 8.84856 18.0606 8.84856 17.798V13.115H9.78846C9.70673 13.4213 9.66587 13.7277 9.66587 14.0341C9.625 15.8723 11.0553 17.3603 12.8125 17.3603ZM12.8125 16.0473C11.6683 16.0473 10.7692 15.0845 10.7692 13.9028C10.7692 12.7211 11.6683 11.7582 12.8125 11.7582C13.9567 11.7582 14.8558 12.7211 14.8558 13.9028C14.8558 15.1282 13.9567 16.0473 12.8125 16.0473ZM16.7356 11.3643C16.7356 11.6269 16.5312 11.8457 16.2861 11.8457H15.1418C14.8966 11.8457 14.6923 11.6269 14.6923 11.3643V10.1826C14.6923 9.91998 14.8966 9.70114 15.1418 9.70114H16.2861C16.5312 9.70114 16.7356 9.91998 16.7356 10.1826V11.3643Z" fill="white"/>
<defs>
<linearGradient id="paint0_linear" x1="5.3125" y1="23.9884" x2="23.0543" y2="6.79768" gradientUnits="userSpaceOnUse">
<stop stop-color="#EEA054"/>
<stop offset="0.502762" stop-color="#D64763"/>
<stop offset="1" stop-color="#B62A99"/>
</linearGradient>
</defs>
</svg>
