<svg width="64" height="64" viewBox="0 0 64 64" fill="none" xmlns="http://www.w3.org/2000/svg">
<path d="M32 58.6663C46.7276 58.6663 58.6667 46.7273 58.6667 31.9997C58.6667 17.2721 46.7276 5.33301 32 5.33301C17.2724 5.33301 5.33337 17.2721 5.33337 31.9997C5.33337 46.7273 17.2724 58.6663 32 58.6663Z" stroke="#25282B" stroke-width="2" stroke-linecap="round" stroke-linejoin="round"/>
<path d="M32 48C40.8366 48 48 40.8366 48 32C48 23.1634 40.8366 16 32 16C23.1634 16 16 23.1634 16 32C16 40.8366 23.1634 48 32 48Z" stroke="#25282B" stroke-width="2" stroke-linecap="round" stroke-linejoin="round"/>
<path d="M32 37.3337C34.9455 37.3337 37.3333 34.9458 37.3333 32.0003C37.3333 29.0548 34.9455 26.667 32 26.667C29.0544 26.667 26.6666 29.0548 26.6666 32.0003C26.6666 34.9458 29.0544 37.3337 32 37.3337Z" stroke="#25282B" stroke-width="2" stroke-linecap="round" stroke-linejoin="round"/>
</svg>
