<svg width="15" height="17" viewBox="0 0 15 17" fill="none" xmlns="http://www.w3.org/2000/svg">
<ellipse cx="7.5" cy="8.85379" rx="7.5" ry="8.03251" fill="#2F89CE"/>
<path d="M3.50651 9.00484L5.2308 9.69345L5.90297 12.0097C5.9322 12.1662 6.10755 12.1975 6.22445 12.1036L7.18888 11.2585C7.27655 11.1646 7.42268 11.1646 7.53958 11.2585L9.26386 12.6044C9.38076 12.6983 9.55611 12.6357 9.58534 12.4792L10.8712 5.90613C10.9005 5.74963 10.7543 5.59313 10.6082 5.65573L3.50651 8.59794C3.33116 8.66054 3.33116 8.94224 3.50651 9.00484ZM5.8153 9.34914L9.20541 7.12684C9.26386 7.09554 9.32231 7.18944 9.26386 7.22074L6.48748 10.0064C6.3998 10.1003 6.31212 10.2255 6.31212 10.382L6.22445 11.1332C6.22445 11.2272 6.07832 11.2585 6.0491 11.1332L5.69839 9.75605C5.61072 9.59955 5.66918 9.41174 5.8153 9.34914Z" fill="white"/>
</svg>
