<svg width="48" height="48" viewBox="0 0 48 48" fill="none" xmlns="http://www.w3.org/2000/svg">
<path d="M29.4001 12.6004C29.0336 12.9743 28.8284 13.4769 28.8284 14.0004C28.8284 14.524 29.0336 15.0266 29.4001 15.4004L32.6001 18.6004C32.9739 18.9669 33.4766 19.1722 34.0001 19.1722C34.5236 19.1722 35.0262 18.9669 35.4001 18.6004L42.9401 11.0604C43.9457 13.2828 44.2502 15.7589 43.813 18.1587C43.3757 20.5586 42.2175 22.7681 40.4926 24.493C38.7678 26.2179 36.5582 27.3761 34.1584 27.8134C31.7585 28.2506 29.2825 27.9461 27.0601 26.9404L13.2401 40.7604C12.4444 41.5561 11.3653 42.0031 10.2401 42.0031C9.11486 42.0031 8.03573 41.5561 7.24008 40.7604C6.44443 39.9648 5.99744 38.8857 5.99744 37.7604C5.99744 36.6352 6.44443 35.5561 7.24008 34.7604L21.0601 20.9404C20.0544 18.7181 19.7499 16.242 20.1872 13.8422C20.6244 11.4423 21.7827 9.23276 23.5075 7.50789C25.2324 5.78302 27.442 4.62479 29.8418 4.18753C32.2416 3.75028 34.7177 4.05478 36.9401 5.06045L29.4201 12.5804L29.4001 12.6004Z" stroke="#25282B" stroke-width="2" stroke-linecap="round" stroke-linejoin="round"/>
</svg>
