<svg width="32" height="32" viewBox="0 0 32 32" fill="none" xmlns="http://www.w3.org/2000/svg">
<path d="M21.3333 4H1.33334V21.3333H21.3333V4Z" stroke="#25282B" stroke-width="2" stroke-linecap="round" stroke-linejoin="round"/>
<path d="M21.3333 10.667H26.6667L30.6667 14.667V21.3337H21.3333V10.667Z" stroke="#25282B" stroke-width="2" stroke-linecap="round" stroke-linejoin="round"/>
<path d="M7.33333 27.9997C9.17428 27.9997 10.6667 26.5073 10.6667 24.6663C10.6667 22.8254 9.17428 21.333 7.33333 21.333C5.49238 21.333 4 22.8254 4 24.6663C4 26.5073 5.49238 27.9997 7.33333 27.9997Z" stroke="#25282B" stroke-width="2" stroke-linecap="round" stroke-linejoin="round"/>
<path d="M24.6667 27.9997C26.5076 27.9997 28 26.5073 28 24.6663C28 22.8254 26.5076 21.333 24.6667 21.333C22.8257 21.333 21.3333 22.8254 21.3333 24.6663C21.3333 26.5073 22.8257 27.9997 24.6667 27.9997Z" stroke="#25282B" stroke-width="2" stroke-linecap="round" stroke-linejoin="round"/>
</svg>
