<svg width="15" height="17" viewBox="0 0 15 17" fill="none" xmlns="http://www.w3.org/2000/svg">
<ellipse cx="7.5" cy="8.34598" rx="7.5" ry="8.03251" fill="#48C95F"/>
<path d="M10.4726 5.15869C9.73171 4.36799 8.7439 3.92871 7.70122 3.92871C5.53354 3.92871 3.77744 5.80296 3.77744 8.11649C3.77744 8.84862 3.96951 9.58075 4.29878 10.1957L3.75 12.3628L5.83537 11.7771C6.41159 12.0993 7.04268 12.275 7.70122 12.275C9.8689 12.275 11.625 10.4007 11.625 8.08721C11.5976 7.00365 11.2134 5.94939 10.4726 5.15869ZM9.59451 9.61003C9.5122 9.84432 9.12805 10.0786 8.93598 10.1079C8.77134 10.1372 8.55183 10.1372 8.33232 10.0786C8.19512 10.02 8.00305 9.96146 7.78354 9.84432C6.79573 9.40504 6.16463 8.35077 6.10976 8.26292C6.05488 8.20435 5.69817 7.7065 5.69817 7.17937C5.69817 6.65223 5.94512 6.41795 6.02744 6.30081C6.10976 6.18367 6.21951 6.18367 6.30183 6.18367C6.35671 6.18367 6.43902 6.18367 6.4939 6.18367C6.54878 6.18367 6.6311 6.15438 6.71341 6.35938C6.79573 6.56438 6.9878 7.09151 7.01524 7.1208C7.04268 7.17937 7.04268 7.23794 7.01524 7.29651C6.9878 7.35508 6.96036 7.41365 6.90549 7.47222C6.85061 7.53079 6.79573 7.61864 6.76829 7.64793C6.71341 7.7065 6.65854 7.76507 6.71341 7.85292C6.76829 7.97006 6.96037 8.2922 7.2622 8.58505C7.64634 8.93648 7.94817 9.05362 8.05793 9.11219C8.16768 9.17076 8.22256 9.14147 8.27744 9.0829C8.33232 9.02433 8.52439 8.79005 8.57927 8.67291C8.63415 8.55577 8.71646 8.58505 8.79878 8.61434C8.8811 8.64362 9.375 8.90719 9.45732 8.96576C9.56707 9.02433 9.62195 9.05362 9.64939 9.0829C9.67683 9.17076 9.67683 9.37575 9.59451 9.61003Z" fill="white"/>
</svg>
