<svg width="25" height="27" viewBox="0 0 25 27" fill="none" xmlns="http://www.w3.org/2000/svg">
<ellipse cx="12.5" cy="13.6131" rx="12.5" ry="13.3875" fill="#F40000"/>
<path d="M17.9457 12.8854C17.9457 12.6258 17.9053 12.3229 17.9053 11.9767C17.8649 11.6305 17.8245 11.2843 17.7841 10.9814C17.7033 10.6352 17.5821 10.3756 17.3396 10.1592C17.1376 9.94286 16.8548 9.81304 16.572 9.76977C15.6427 9.63995 14.2689 9.59668 12.4104 9.59668C10.5518 9.59668 9.13762 9.63995 8.24873 9.76977C7.96591 9.81304 7.68308 9.94286 7.48106 10.1592C7.27904 10.3756 7.11742 10.6352 7.03661 10.9814C6.95581 11.2843 6.91541 11.5872 6.91541 11.9767C6.875 12.3229 6.875 12.6258 6.875 12.8854C6.875 13.145 6.875 13.448 6.875 13.8807C6.875 14.3134 6.875 14.6596 6.875 14.876C6.875 15.1356 6.91541 15.4385 6.91541 15.7847C6.95581 16.1309 6.99621 16.477 7.03661 16.78C7.11742 17.1261 7.23864 17.3858 7.48106 17.6021C7.68308 17.8185 7.96591 17.9483 8.24873 17.9916C9.17803 18.1214 10.5518 18.1647 12.4104 18.1647C14.2689 18.1647 15.6831 18.1214 16.572 17.9916C16.8548 17.9483 17.1376 17.8185 17.3396 17.6021C17.5417 17.3858 17.7033 17.1261 17.7841 16.78C17.8649 16.477 17.9053 16.1741 17.9053 15.7847C17.9457 15.4385 17.9457 15.1356 17.9457 14.876C17.9457 14.6163 17.9457 14.3134 17.9457 13.8807C17.9457 13.448 17.9457 13.1018 17.9457 12.8854ZM14.5518 14.2269L11.3599 16.3472C11.3194 16.3905 11.2386 16.4338 11.1578 16.4338C11.077 16.4338 11.0366 16.4338 10.9558 16.3905C10.8346 16.304 10.7538 16.1741 10.7538 16.0011V11.717C10.7538 11.544 10.8346 11.4141 10.9558 11.3276C11.077 11.241 11.2386 11.241 11.3599 11.3276L14.5518 13.448C14.673 13.5345 14.7538 13.6643 14.7538 13.7941C14.7538 13.924 14.673 14.1403 14.5518 14.2269Z" fill="white"/>
</svg>
